<svg width="134" height="154" viewBox="0 0 134 154" fill="none" xmlns="http://www.w3.org/2000/svg">
<path fill-rule="evenodd" clip-rule="evenodd" d="M67.4905 75.0872L3.28877 37.7105L67.4905 0.691895L84.1221 10.8856L36.7308 37.7105L43.4245 41.6951L72.3958 24.7054L89.3083 34.6703L60.3371 51.6596L67.4905 55.4152L113.809 27.5171L131.156 37.7105L67.4905 75.0872ZM0.544922 42.5867V116.774L64.3428 153.3V125.865L56.226 111.417L64.3428 106.385V79.1124L0.544922 42.5867ZM17.1325 79.674V71.1624L47.756 88.6484V97.1601L17.1325 79.674ZM17.1338 107.239V98.727L47.7572 116.213V124.725L17.1338 107.239ZM69.6271 153.308L133.455 116.547V97.3579L86.594 124.02V115.335L116.69 98.7718V80.189L86.594 97.3579V88.6724L133.455 61.8082V42.2154L69.6271 79.1792V153.308Z" fill="white"/>
</svg>
