<svg width="133" height="153" viewBox="0 0 133 153" fill="none" xmlns="http://www.w3.org/2000/svg">
<path fill-rule="evenodd" clip-rule="evenodd" d="M66.9456 74.3953L2.74385 37.0186L66.9456 0L83.5772 10.1937L36.1859 37.0186L42.8795 41.0032L71.8508 24.0136L88.7634 33.9784L59.7921 50.9677L66.9456 54.7233L113.264 26.8252L130.611 37.0186L66.9456 74.3953ZM0 41.8948V116.082L63.7979 152.608V125.173L55.6811 110.725L63.7979 105.693V78.4205L0 41.8948ZM16.5876 78.9821V70.4705L47.211 87.9565V96.4682L16.5876 78.9821ZM16.5889 106.547V98.0351L47.2123 115.521V124.033L16.5889 106.547ZM69.0822 152.616L132.91 115.855V96.666L86.0491 123.328V114.643L116.145 98.0799V79.4971L86.0491 96.666V87.9805L132.91 61.1163V41.5236L69.0822 78.4873V152.616Z" fill="url(#paint0_linear_501_2)"/>
<defs>
<linearGradient id="paint0_linear_501_2" x1="66.455" y1="0" x2="66.455" y2="152.616" gradientUnits="userSpaceOnUse">
<stop stop-color="#111344"/>
<stop offset="0.520833" stop-color="#223B90"/>
<stop offset="1" stop-color="#3F72C2"/>
</linearGradient>
</defs>
</svg>
