<svg width="219" height="79" viewBox="0 0 219 79" fill="none" xmlns="http://www.w3.org/2000/svg">
<g clip-path="url(#clip0_23_40)">
<path d="M195.5 0H23.5C10.5213 0 0 10.5213 0 23.5V55.5C0 68.4787 10.5213 79 23.5 79H195.5C208.479 79 219 68.4787 219 55.5V23.5C219 10.5213 208.479 0 195.5 0Z" fill="#242835"/>
<mask id="mask0_23_40" style="mask-type:luminance" maskUnits="userSpaceOnUse" x="27" y="26" width="28" height="28">
<path d="M54.5 26.5H27.5V53.5H54.5V26.5Z" fill="white"/>
</mask>
<g mask="url(#mask0_23_40)">
<path d="M125.9 50.3681C123.518 50.3681 121.676 49.6001 120.296 48.1421C118.994 46.6841 118.298 44.6141 118.298 41.9261C118.298 39.3161 118.91 37.1681 120.218 35.6321C121.52 34.0181 123.212 33.2501 125.438 33.2501C127.358 33.2501 128.894 33.9401 130.046 35.2481C131.198 36.6281 131.732 38.4701 131.732 40.7741V42.0041H119.912C119.912 44.2301 120.452 45.9941 121.526 47.1461C122.522 48.3761 124.058 48.9101 125.978 48.9101C126.896 48.9101 127.742 48.8321 128.432 48.6821C129.122 48.5261 130.046 48.2981 131.12 47.8361V49.2941C130.202 49.6781 129.356 49.9841 128.588 50.1401C127.742 50.2961 126.896 50.3681 125.9 50.3681ZM125.516 34.6361C123.902 34.6361 122.678 35.1761 121.676 36.1721C120.758 37.2461 120.14 38.7041 119.99 40.7021H130.124C130.124 38.7821 129.74 37.3241 128.894 36.2501C128.126 35.1701 126.974 34.6361 125.516 34.6361ZM140.252 33.3281C140.942 33.3281 141.71 33.4061 142.478 33.5561L142.172 35.0141C141.464 34.8581 140.744 34.7801 140.024 34.7861C138.644 34.7861 137.492 35.3981 136.568 36.5501C135.65 37.7801 135.188 39.2381 135.188 41.0801V50.0621H133.652V33.6401H134.954L135.11 36.6341H135.188C135.878 35.4041 136.568 34.5641 137.336 34.1021C138.26 33.5621 139.178 33.3281 140.252 33.3281ZM47.534 27.2681H36.554V42.0041H51.29V31.1021C51.296 29.0321 49.604 27.2681 47.534 27.2681ZM33.182 27.2681H31.34C29.27 27.2681 27.5 28.9541 27.5 31.1081V32.9501H33.182V27.2681ZM27.5 36.4001H33.182V42.0821H27.5V36.4001ZM45.614 51.1361H47.456C49.526 51.1361 51.296 49.4501 51.296 47.2961V45.4601H45.614V51.1361ZM36.554 45.4601H42.236V51.1421H36.554V45.4601ZM27.5 45.4601V47.3021C27.5 49.3721 29.186 51.1421 31.34 51.1421H33.182V45.4601H27.5Z" fill="white"/>
</g>
<path d="M51.5 16H27.5C21.1487 16 16 21.1487 16 27.5V51.5C16 57.8513 21.1487 63 27.5 63H51.5C57.8513 63 63 57.8513 63 51.5V27.5C63 21.1487 57.8513 16 51.5 16Z" stroke="#33394B"/>
<path d="M82.492 44.1559V34.4759H81.036V45.4999H87.004V44.1559H82.492ZM95.413 41.7399C95.413 39.3719 93.829 37.8359 91.701 37.8359C89.573 37.8359 87.861 39.3719 87.861 41.7399C87.861 44.1079 89.573 45.6919 91.701 45.6919C93.141 45.6919 94.485 44.9879 95.125 43.6919L93.925 43.2119C93.493 43.9639 92.661 44.3799 91.749 44.3799C90.469 44.3799 89.509 43.6919 89.301 42.3639H95.381C95.397 42.1559 95.413 41.9479 95.413 41.7399ZM89.317 41.1639C89.541 39.8199 90.437 39.1479 91.701 39.1479C92.933 39.1479 93.845 39.8839 94.021 41.1639H89.317ZM103.214 33.9639V39.1959C102.718 38.3159 101.662 37.8359 100.542 37.8359C98.494 37.8359 96.814 39.3879 96.814 41.7559C96.814 44.1079 98.51 45.6919 100.558 45.6919C101.63 45.6919 102.718 45.1799 103.214 44.3319V45.4999H104.606V33.9639H103.214ZM100.67 44.3799C99.31 44.3799 98.222 43.2279 98.222 41.7399C98.222 40.2359 99.31 39.1479 100.67 39.1479C101.902 39.1479 103.214 40.1239 103.214 41.7399C103.214 43.3399 102.014 44.3799 100.67 44.3799ZM112.948 38.0279V39.1959C112.452 38.3319 111.396 37.8359 110.276 37.8359C108.228 37.8359 106.548 39.3879 106.548 41.7559C106.548 44.1079 108.244 45.6919 110.292 45.6919C111.364 45.6919 112.452 45.1799 112.948 44.3319V44.5559C112.948 47.0839 111.924 48.0119 110.276 48.0119C109.444 48.0119 108.564 47.5479 108.1 46.6999L106.916 47.3239C107.652 48.6359 108.916 49.3239 110.276 49.3239C112.74 49.3239 114.34 47.9959 114.34 44.4599V38.0279H112.948ZM110.404 44.3799C109.044 44.3799 107.956 43.2279 107.956 41.7399C107.956 40.2359 109.044 39.1479 110.404 39.1479C111.636 39.1479 112.948 40.1239 112.948 41.7399C112.948 43.3399 111.748 44.3799 110.404 44.3799ZM123.835 41.7399C123.835 39.3719 122.251 37.8359 120.123 37.8359C117.995 37.8359 116.283 39.3719 116.283 41.7399C116.283 44.1079 117.995 45.6919 120.123 45.6919C121.563 45.6919 122.907 44.9879 123.547 43.6919L122.347 43.2119C121.915 43.9639 121.083 44.3799 120.171 44.3799C118.891 44.3799 117.931 43.6919 117.723 42.3639H123.803C123.819 42.1559 123.835 41.9479 123.835 41.7399ZM117.739 41.1639C117.963 39.8199 118.859 39.1479 120.123 39.1479C121.355 39.1479 122.267 39.8839 122.443 41.1639H117.739ZM129.236 37.8359C128.244 37.8359 127.524 38.4119 127.14 39.7239V38.0279H125.732V45.4999H127.14V42.7639C127.14 40.7959 127.732 39.1799 129.22 39.1799C129.508 39.1799 129.908 39.2439 130.308 39.4359L130.532 38.1239C130.308 37.9799 129.764 37.8359 129.236 37.8359Z" fill="#EFF1FC"/>
<path d="M195.5 0H23.5C10.5213 0 0 10.5213 0 23.5V55.5C0 68.4787 10.5213 79 23.5 79H195.5C208.479 79 219 68.4787 219 55.5V23.5C219 10.5213 208.479 0 195.5 0Z" stroke="#33394B"/>
</g>
<defs>
<clipPath id="clip0_23_40">
<rect width="219" height="79" fill="white"/>
</clipPath>
</defs>
</svg>
