<svg width="219" height="80" viewBox="0 0 219 80" fill="none" xmlns="http://www.w3.org/2000/svg">
<g clip-path="url(#clip0_23_34)">
<path d="M195.5 1H23.5C10.5213 1 0 11.5213 0 24.5V56.5C0 69.4787 10.5213 80 23.5 80H195.5C208.479 80 219 69.4787 219 56.5V24.5C219 11.5213 208.479 1 195.5 1Z" fill="#242835"/>
<path d="M28.8199 41.8962L29.59 41.564L39.08 37.4355L49.35 41.8962L45.49 49.8685L36.0601 51.1972L28.97 43.5413L28.8199 41.8962Z" fill="#133444"/>
<path d="M47.21 36.9927C45.52 34.9522 43.12 33.6235 40.49 33.2755C40.43 33.2755 40.3799 33.2597 40.3199 33.2597C39.4899 33.1647 38.67 33.1647 37.85 33.2597C37.79 33.2597 37.74 33.2755 37.67 33.2755C35.05 33.6235 32.64 34.9522 30.95 36.9927L30.52 37.7045L29.8101 38.8909L29.29 39.7609C29.29 39.7925 29.28 39.8083 29.26 39.8242V39.84L30.4 40.5202L37.67 44.8227L39.08 45.6452V35.3635L37.67 35.9962V34.4618L39.08 33.8291L40.49 34.4618L47.64 37.7045L47.21 36.9927Z" fill="#C42370"/>
<path d="M49.66 44.459C49.65 47.8283 48.13 51.0077 45.52 53.1431C44.52 53.9499 43.4001 54.5826 42.1801 54.9939C41.1901 55.326 40.14 55.5 39.1 55.5C33.25 55.5 28.52 50.2959 28.52 44.459C28.52 43.589 28.63 42.7348 28.83 41.8965L39.1 47.9706L49.36 41.8965C49.55 42.7348 49.66 43.589 49.66 44.459Z" fill="#1C4D6B"/>
<path d="M37.85 33.2439L39.08 33.8134L37.67 34.4461V33.1807L37.85 33.2439Z" fill="black"/>
<path d="M37.67 35.9962L39.08 35.3477V45.6294L37.67 44.8069V35.9962Z" fill="black"/>
<path d="M39.08 35.3477V45.6294L48.92 39.8242L39.08 35.3477Z" fill="#1D4259"/>
<path d="M39.08 23.5V35.3478L48.92 39.8243L39.08 23.5Z" fill="#4B6B9A"/>
<path d="M39.08 35.348V45.6297L37.67 44.8072L29.26 39.8245C29.26 39.7929 29.28 39.777 29.29 39.7612L30.52 37.7207L37.67 34.478V36.0282L39.08 35.348Z" fill="#343535"/>
<path d="M39.08 35.3477V45.6294L37.67 44.8069L29.26 39.8242H29.24L29.26 39.8084L37.67 35.9962L39.08 35.3477Z" fill="#3E5578"/>
<path d="M39.08 23.5V35.3478L29.24 39.8243L39.08 23.5Z" fill="#6DB2D8"/>
<path d="M35.1 54.6616C35.24 54.7249 35.4 54.7882 35.54 54.8514C35.4 54.7882 35.25 54.7249 35.1 54.6616Z" fill="#335F8A"/>
<path d="M35.54 54.8359C35.68 54.8992 35.84 54.9466 36 54.9941C35.84 54.9466 35.7 54.8992 35.54 54.8359Z" fill="#335F8A"/>
<path d="M36.39 55.1206C36.52 55.1522 36.63 55.1838 36.74 55.2155L36.39 55.1206Z" fill="#335F8A"/>
<path d="M28.8199 41.8965L39.08 47.9706C38.94 48.8881 38.7 49.7897 38.34 50.6597C37.52 52.6528 35.86 54.7408 32.64 53.1431C30.03 51.0077 28.52 47.8124 28.5 44.4432C28.5 43.589 28.6099 42.7348 28.8199 41.8965Z" fill="#6DB2D8"/>
<path d="M45.49 53.1588C45.43 53.2062 45.49 53.1588 45.28 53.3328L45.1899 53.3961L45.05 53.491L44.87 53.6175C45.05 53.491 44.73 53.7124 44.67 53.7599C44.6 53.7915 44.56 53.8231 44.49 53.8706L44.38 53.9497C44.35 53.9655 44.3 53.9971 44.27 54.0288C44.27 54.0288 44.22 54.0762 44.21 54.0762C44.27 54.0288 44.1301 54.1079 44.0601 54.1553C43.9901 54.187 43.92 54.2186 43.86 54.2661L43.64 54.3768L43.54 54.4242C43.48 54.4559 43.51 54.4242 43.45 54.4717C43.38 54.5191 43.31 54.535 43.23 54.5824C43.15 54.6299 43.23 54.5824 42.96 54.709C43.23 54.5824 42.9599 54.709 42.8199 54.7722C42.9599 54.709 42.56 54.8671 42.39 54.9304C42.32 54.9462 41.98 55.057 41.91 55.0728C41.85 55.0886 41.77 55.1202 41.71 55.136C41.58 55.1677 41.47 55.1993 41.36 55.231C41.31 55.2468 41.26 55.2468 41.23 55.2626L41.15 55.2784L40.96 55.3259C40.9 55.3417 40.85 55.3417 40.79 55.3575C40.73 55.3733 40.68 55.3733 40.63 55.3891C40.58 55.405 40.51 55.405 40.46 55.4208C40.43 55.4208 40.39 55.4208 40.38 55.4366L40.25 55.4524H40.1899C40.1399 55.4524 40.09 55.4682 40.05 55.4682C40 55.4682 39.92 55.484 39.86 55.484H38.24C38.18 55.484 38.12 55.4682 38.05 55.4682C38.01 55.4682 37.96 55.4682 37.91 55.4524H37.85C37.8 55.4524 37.75 55.4366 37.72 55.4366C37.69 55.4366 37.66 55.4366 37.64 55.4208C37.58 55.4208 37.53 55.405 37.47 55.3891C37.42 55.3891 37.3601 55.3733 37.3101 55.3575C37.2601 55.3417 37.2 55.3417 37.14 55.3259L36.95 55.2784L36.87 55.2626C36.82 55.2626 36.77 55.2468 36.74 55.231C36.61 55.1993 36.5 55.1677 36.39 55.136L36.1899 55.0728C36.1199 55.057 36.06 55.0411 36 55.0095C35.84 54.962 35.7 54.8988 35.54 54.8513C35.38 54.8039 35.24 54.7248 35.1 54.6615C35.03 54.6299 34.95 54.5982 34.87 54.5666C34.8 54.535 34.72 54.5033 34.65 54.4559C34.57 54.4242 34.51 54.3926 34.45 54.3451C34.38 54.3135 34.3 54.2661 34.24 54.2344C34.18 54.2028 34.13 54.1711 34.08 54.1395C33.93 54.0446 33.8301 53.9813 33.9301 54.0446L33.83 53.9813L33.66 53.8706L33.59 53.839L33.4301 53.7282C33.3701 53.6808 33.31 53.6491 33.25 53.6017C33.18 53.5542 33.1 53.5068 33.04 53.4593C32.98 53.4119 32.91 53.3486 32.87 53.317L32.8 53.2695C32.74 53.2379 32.69 53.1904 32.64 53.143C35.86 54.7406 37.4999 52.621 38.3199 50.6437C38.6699 49.7737 38.9199 48.8721 39.0699 47.9546C39.2099 48.8879 39.4501 49.8054 39.8101 50.6753C40.6601 52.6368 42.28 54.7406 45.49 53.1588Z" fill="#529BBA"/>
<path d="M41.42 55.2155C41.55 55.1838 41.66 55.1522 41.77 55.1206L41.42 55.2155Z" fill="#335F8A"/>
<path d="M42.59 54.8516C42.74 54.7883 42.9299 54.725 43.0699 54.646C42.9099 54.725 42.74 54.7883 42.59 54.8516Z" fill="#335F8A"/>
<path d="M49.66 44.459C49.65 47.8283 48.13 51.0077 45.52 53.1431C42.31 54.7408 40.65 52.637 39.83 50.6597C39.48 49.7897 39.22 48.8881 39.08 47.9706L49.35 41.8965C49.55 42.7348 49.66 43.589 49.66 44.459Z" fill="#4B6B9A"/>
<path d="M51.5 17H27.5C21.1487 17 16 22.1487 16 28.5V52.5C16 58.8513 21.1487 64 27.5 64H51.5C57.8513 64 63 58.8513 63 52.5V28.5C63 22.1487 57.8513 17 51.5 17Z" stroke="#33394B"/>
<path d="M85.42 35.4761H81.04V46.5001H82.49V42.3561H85.42C87.76 42.3561 88.7 40.6601 88.7 38.9161C88.7 37.2041 87.76 35.4761 85.42 35.4761ZM85.3199 40.9961H82.49V36.8201H85.4C86.72 36.8201 87.24 37.8921 87.24 38.9161C87.24 39.9721 86.6999 40.9961 85.3199 40.9961ZM93.58 46.6921C95.7 46.6921 97.5 45.1241 97.5 42.7561C97.5 40.3881 95.7 38.8361 93.58 38.8361C91.45 38.8361 89.67 40.3881 89.67 42.7561C89.67 45.1241 91.45 46.6921 93.58 46.6921ZM93.58 45.3801C92.22 45.3801 91.08 44.3081 91.08 42.7561C91.08 41.2201 92.22 40.1481 93.58 40.1481C94.95 40.1481 96.1 41.2201 96.1 42.7561C96.1 44.3081 94.95 45.3801 93.58 45.3801ZM102.94 38.8361C101.95 38.8361 101.23 39.4121 100.84 40.7241V39.0281H99.4301V46.5001H100.84V43.7641C100.84 41.7961 101.43 40.1801 102.92 40.1801C103.21 40.1801 103.61 40.2441 104.01 40.4361L104.23 39.1241C104.01 38.9801 103.47 38.8361 102.94 38.8361ZM109.21 39.0281H107.59V36.2121H106.2V39.0281H104.85V40.2281H106.2V46.5001H107.59V40.2281H109.21V39.0281ZM111.45 37.2041C111.99 37.2041 112.44 36.8041 112.44 36.2761C112.44 35.7481 111.99 35.3481 111.45 35.3481C110.92 35.3481 110.47 35.7481 110.47 36.2761C110.47 36.8041 110.92 37.2041 111.45 37.2041ZM110.76 46.5001H112.15V39.0281H110.76V46.5001ZM116.77 46.6921C118.32 46.6921 119.66 45.8121 119.66 44.4201C119.66 43.5721 119.26 42.6441 117.71 42.2601L116.61 41.9881C116.13 41.8761 115.65 41.6041 115.65 41.0921C115.65 40.5161 116.13 40.0521 116.85 40.0521C117.44 40.0521 118.03 40.4361 118.05 41.0121H119.39C119.39 39.5081 118.08 38.8361 116.82 38.8361C115.31 38.8361 114.26 39.8121 114.26 41.0441C114.26 42.2441 114.98 42.8521 116.22 43.1881L117.25 43.4281C117.84 43.5561 118.27 43.8441 118.27 44.4041C118.27 45.0121 117.71 45.4761 116.77 45.4761C115.86 45.4761 115.3 44.9481 115.28 44.3081H113.98C114.05 45.8441 115.42 46.6921 116.77 46.6921Z" fill="#EFF1FC"/>
<path d="M195.5 0H23.5C10.5213 0 0 10.5213 0 23.5V55.5C0 68.4787 10.5213 79 23.5 79H195.5C208.479 79 219 68.4787 219 55.5V23.5C219 10.5213 208.479 0 195.5 0Z" stroke="#33394B"/>
</g>
<defs>
<clipPath id="clip0_23_34">
<rect width="219" height="80" fill="white"/>
</clipPath>
</defs>
</svg>
