<svg width="219" height="79" viewBox="0 0 219 79" fill="none" xmlns="http://www.w3.org/2000/svg">
<g clip-path="url(#clip0_23_39)">
<path d="M195.5 0H23.5C10.5213 0 0 10.5213 0 23.5V55.5C0 68.4787 10.5213 79 23.5 79H195.5C208.479 79 219 68.4787 219 55.5V23.5C219 10.5213 208.479 0 195.5 0Z" fill="#242835"/>
<mask id="mask0_23_39" style="mask-type:luminance" maskUnits="userSpaceOnUse" x="23" y="23" width="33" height="33">
<path d="M55.5 23.5H23.5V55.5H55.5V23.5Z" fill="white"/>
</mask>
<g mask="url(#mask0_23_39)">
<path fill-rule="evenodd" clip-rule="evenodd" d="M31.789 33.4187V31.2108C31.789 26.9523 35.242 23.5 39.5 23.5C43.759 23.5 47.211 26.9523 47.211 31.2108V33.4187H50.437V50.3325L39.597 55.5L28.512 50.3325V33.4187H31.789ZM35.645 33.4187H43.356V31.2108H43.349C43.235 29.1687 41.555 27.5482 39.5 27.5482C37.445 27.5482 35.765 29.1687 35.651 31.2108H35.645V33.4187ZM32.946 37.3795V47.5964L39.475 50.6743L46.054 47.5964V37.3795H32.946Z" fill="white"/>
</g>
<path d="M51.5 16H27.5C21.1487 16 16 21.1487 16 27.5V51.5C16 57.8513 21.1487 63 27.5 63H51.5C57.8513 63 63 57.8513 63 51.5V27.5C63 21.1487 57.8513 16 51.5 16Z" stroke="#33394B"/>
<path d="M87.996 34.4761H79.82V35.8201H83.18V45.5001H84.636V35.8201H87.996V34.4761ZM91.548 37.8361C90.556 37.8361 89.836 38.4121 89.452 39.7241V38.0281H88.044V45.5001H89.452V42.7641C89.452 40.7961 90.044 39.1801 91.532 39.1801C91.82 39.1801 92.22 39.2441 92.62 39.4361L92.844 38.1241C92.62 37.9801 92.076 37.8361 91.548 37.8361ZM101.038 41.7401C101.038 39.3721 99.454 37.8361 97.326 37.8361C95.198 37.8361 93.486 39.3721 93.486 41.7401C93.486 44.1081 95.198 45.6921 97.326 45.6921C98.766 45.6921 100.11 44.9881 100.75 43.6921L99.55 43.2121C99.118 43.9641 98.286 44.3801 97.374 44.3801C96.094 44.3801 95.134 43.6921 94.926 42.3641H101.006C101.022 42.1561 101.038 41.9481 101.038 41.7401ZM94.942 41.1641C95.166 39.8201 96.062 39.1481 97.326 39.1481C98.558 39.1481 99.47 39.8841 99.646 41.1641H94.942ZM108.841 38.0281H102.521V39.3401H106.809L102.281 44.3481V45.5001H108.841V44.1881H104.233L108.841 39.1801V38.0281ZM114.077 45.6921C116.205 45.6921 117.997 44.1241 117.997 41.7561C117.997 39.3881 116.205 37.8361 114.077 37.8361C111.949 37.8361 110.173 39.3881 110.173 41.7561C110.173 44.1241 111.949 45.6921 114.077 45.6921ZM114.077 44.3801C112.717 44.3801 111.581 43.3081 111.581 41.7561C111.581 40.2201 112.717 39.1481 114.077 39.1481C115.453 39.1481 116.605 40.2201 116.605 41.7561C116.605 43.3081 115.453 44.3801 114.077 44.3801ZM123.439 37.8361C122.447 37.8361 121.727 38.4121 121.343 39.7241V38.0281H119.935V45.5001H121.343V42.7641C121.343 40.7961 121.935 39.1801 123.423 39.1801C123.711 39.1801 124.111 39.2441 124.511 39.4361L124.735 38.1241C124.511 37.9801 123.967 37.8361 123.439 37.8361Z" fill="#EFF1FC"/>
<path d="M195.5 0H23.5C10.5213 0 0 10.5213 0 23.5V55.5C0 68.4787 10.5213 79 23.5 79H195.5C208.479 79 219 68.4787 219 55.5V23.5C219 10.5213 208.479 0 195.5 0Z" stroke="#33394B"/>
</g>
<defs>
<clipPath id="clip0_23_39">
<rect width="219" height="79" fill="white"/>
</clipPath>
</defs>
</svg>
