<svg width="219" height="80" viewBox="0 0 219 80" fill="none" xmlns="http://www.w3.org/2000/svg">
<g clip-path="url(#clip0_23_36)">
<path d="M195.5 0H23.5C10.5213 0 0 10.5213 0 23.5V55.5C0 68.4787 10.5213 79 23.5 79H195.5C208.479 79 219 68.4787 219 55.5V23.5C219 10.5213 208.479 0 195.5 0Z" fill="#242835"/>
<mask id="mask0_23_36" style="mask-type:luminance" maskUnits="userSpaceOnUse" x="23" y="29" width="33" height="21">
<path d="M55.5 29.5H23.5V49.5H55.5V29.5Z" fill="white"/>
</mask>
<g mask="url(#mask0_23_36)">
<path d="M30.0501 33.3676C35.2701 28.2596 43.73 28.2596 48.95 33.3676L49.57 33.9824C49.84 34.2378 49.84 34.6519 49.57 34.9073L47.4301 37.0103C47.3001 37.138 47.08 37.138 46.95 37.0103L46.09 36.1643C42.45 32.6008 36.5501 32.6008 32.9101 36.1643L31.98 37.0703C31.85 37.198 31.6401 37.198 31.5101 37.0703L29.36 34.9673C29.1 34.7119 29.1 34.2978 29.36 34.0424L30.0501 33.3676ZM53.3901 37.7168L55.3001 39.5885C55.5601 39.8439 55.5601 40.258 55.3001 40.5134L46.6801 48.953C46.4201 49.2084 46 49.2084 45.74 48.953L39.62 42.9632C39.55 42.8993 39.4501 42.8993 39.3801 42.9632L33.2601 48.953C33.0001 49.2084 32.58 49.2084 32.32 48.953L23.7 40.5133C23.44 40.2579 23.44 39.8438 23.7 39.5884L25.61 37.7167C25.87 37.4613 26.3001 37.4613 26.5601 37.7167L32.6701 43.7066C32.7401 43.7705 32.8401 43.7705 32.9101 43.7066L39.0301 37.7167C39.2901 37.4613 39.71 37.4613 39.97 37.7167L46.09 43.7066C46.16 43.7705 46.26 43.7705 46.33 43.7066L52.44 37.7168C52.7 37.4614 53.1301 37.4614 53.3901 37.7168Z" fill="#3B99FC"/>
</g>
<path d="M51.5 16H27.5C21.1487 16 16 21.1487 16 27.5V51.5C16 57.8513 21.1487 63 27.5 63H51.5C57.8513 63 63 57.8513 63 51.5V27.5C63 21.1487 57.8513 16 51.5 16Z" stroke="#33394B"/>
<path d="M92.14 34.4759L89.34 43.1639L87.28 35.9799H86.17L84.12 43.1959L81.3101 34.4759H79.76L83.48 45.4999H84.75L86.72 38.5399L88.7 45.4999H89.96L93.6899 34.4759H92.14ZM100.31 38.0279V39.1959C99.8101 38.3159 98.76 37.8359 97.64 37.8359C95.52 37.8359 93.91 39.5479 93.91 41.7559C93.91 44.0439 95.6199 45.6919 97.5699 45.6919C98.7699 45.6919 99.8101 45.0679 100.31 44.1719V45.4999H101.7V38.0279H100.31ZM97.78 44.3799C96.4 44.3799 95.3199 43.1799 95.3199 41.7559C95.3199 40.3479 96.4 39.1479 97.76 39.1479C99.01 39.1479 100.31 40.2199 100.31 41.7559C100.31 43.2759 99.11 44.3799 97.78 44.3799ZM104.14 45.4999H105.53V33.9639H104.14V45.4999ZM107.95 45.4999H109.34V33.9639H107.95V45.4999ZM118.82 41.7399C118.82 39.3719 117.23 37.8359 115.11 37.8359C112.98 37.8359 111.27 39.3719 111.27 41.7399C111.27 44.1079 112.98 45.6919 115.11 45.6919C116.55 45.6919 117.89 44.9879 118.53 43.6919L117.33 43.2119C116.9 43.9639 116.07 44.3799 115.15 44.3799C113.87 44.3799 112.91 43.6919 112.71 42.3639H118.79C118.8 42.1559 118.82 41.9479 118.82 41.7399ZM112.72 41.1639C112.95 39.8199 113.84 39.1479 115.11 39.1479C116.34 39.1479 117.25 39.8839 117.43 41.1639H112.72ZM124.19 38.0279H122.57V35.2119H121.18V38.0279H119.84V39.2279H121.18V45.4999H122.57V39.2279H124.19V38.0279ZM134.93 45.6919C136.63 45.6919 138.1 44.9719 139.07 43.8199L138.02 42.9239C137.28 43.7879 136.16 44.3479 134.93 44.3479C132.61 44.3479 130.79 42.3639 130.79 40.0119C130.79 37.6439 132.61 35.6279 134.93 35.6279C136.16 35.6279 137.28 36.1879 138.02 37.0519L139.07 36.1559C138.1 35.0039 136.63 34.2839 134.93 34.2839C131.81 34.2839 129.33 36.8919 129.33 40.0119C129.33 43.1319 131.81 45.6919 134.93 45.6919ZM144.12 45.6919C146.25 45.6919 148.04 44.1239 148.04 41.7559C148.04 39.3879 146.25 37.8359 144.12 37.8359C142 37.8359 140.22 39.3879 140.22 41.7559C140.22 44.1239 142 45.6919 144.12 45.6919ZM144.12 44.3799C142.76 44.3799 141.63 43.3079 141.63 41.7559C141.63 40.2199 142.76 39.1479 144.12 39.1479C145.5 39.1479 146.65 40.2199 146.65 41.7559C146.65 43.3079 145.5 44.3799 144.12 44.3799ZM153.85 37.8359C153.04 37.8359 151.82 38.2519 151.37 39.1639V38.0279H149.98V45.4999H151.37V41.4519C151.37 39.8359 152.62 39.2119 153.66 39.2119C154.7 39.2119 155.47 40.0119 155.47 41.2599V45.4999H156.86V41.1799C156.88 39.0839 155.71 37.8359 153.85 37.8359ZM163.06 37.8359C162.24 37.8359 161.02 38.2519 160.58 39.1639V38.0279H159.18V45.4999H160.58V41.4519C160.58 39.8359 161.82 39.2119 162.86 39.2119C163.9 39.2119 164.67 40.0119 164.67 41.2599V45.4999H166.06V41.1799C166.08 39.0839 164.91 37.8359 163.06 37.8359ZM175.44 41.7399C175.44 39.3719 173.86 37.8359 171.73 37.8359C169.6 37.8359 167.89 39.3719 167.89 41.7399C167.89 44.1079 169.6 45.6919 171.73 45.6919C173.17 45.6919 174.52 44.9879 175.16 43.6919L173.96 43.2119C173.52 43.9639 172.69 44.3799 171.78 44.3799C170.5 44.3799 169.54 43.6919 169.33 42.3639H175.41C175.43 42.1559 175.44 41.9479 175.44 41.7399ZM169.35 41.1639C169.57 39.8199 170.47 39.1479 171.73 39.1479C172.96 39.1479 173.88 39.8839 174.05 41.1639H169.35ZM180.83 45.6919C182 45.6919 183.02 45.2439 183.68 44.5079L182.8 43.5959C182.33 44.0759 181.66 44.3799 180.88 44.3799C179.41 44.3799 178.22 43.2919 178.22 41.7559C178.22 40.2199 179.41 39.1479 180.88 39.1479C181.66 39.1479 182.33 39.4519 182.8 39.9319L183.68 39.0199C183.02 38.2999 182 37.8359 180.83 37.8359C178.69 37.8359 176.81 39.3879 176.81 41.7559C176.81 44.1239 178.69 45.6919 180.83 45.6919ZM189.02 38.0279H187.4V35.2119H186.01V38.0279H184.67V39.2279H186.01V45.4999H187.4V39.2279H189.02V38.0279Z" fill="#EFF1FC"/>
<path d="M195.5 0H23.5C10.5213 0 0 10.5213 0 23.5V55.5C0 68.4787 10.5213 79 23.5 79H195.5C208.479 79 219 68.4787 219 55.5V23.5C219 10.5213 208.479 0 195.5 0Z" stroke="#33394B"/>
</g>
<defs>
<clipPath id="clip0_23_36">
<rect width="219" height="80" fill="white"/>
</clipPath>
</defs>
</svg>
