<svg width="219" height="79" viewBox="0 0 219 79" fill="none" xmlns="http://www.w3.org/2000/svg">
<g clip-path="url(#clip0_23_38)">
<path d="M195.5 0H23.5C10.5213 0 0 10.5213 0 23.5V55.5C0 68.4787 10.5213 79 23.5 79H195.5C208.479 79 219 68.4787 219 55.5V23.5C219 10.5213 208.479 0 195.5 0Z" fill="#242835"/>
<path d="M52.509 39.4973H49.196C48.207 39.4973 47.405 40.2693 47.405 41.2213V45.848C47.405 46.8 46.603 47.572 45.613 47.572H32.432C31.441 47.572 30.64 48.3426 30.64 49.2946V52.4826C30.64 53.4346 31.441 54.2066 32.432 54.2066H46.376C47.365 54.2066 48.156 53.4346 48.156 52.4826V49.9266C48.156 48.9746 48.959 48.3 49.948 48.3H52.508C53.499 48.3 54.3 47.5266 54.3 46.576V41.2026C54.3 40.2506 53.499 39.4986 52.509 39.4986V39.4973ZM30.64 33.1653C30.64 32.2133 31.44 31.4413 32.431 31.4413H45.604C46.595 31.4413 47.396 30.6693 47.396 29.7173V26.5306C47.396 25.5786 46.595 24.8066 45.604 24.8066H31.667C30.677 24.8066 29.876 25.5786 29.876 26.5306V28.9866C29.876 29.9386 29.073 30.7093 28.084 30.7093H25.535C24.545 30.7093 23.743 31.4813 23.743 32.4333V37.812C23.743 38.764 24.548 39.4973 25.537 39.4973H28.851C29.841 39.4973 30.643 38.7253 30.643 37.7733L30.64 33.1666V33.1653ZM37.463 36.1466H40.645C41.683 36.1466 42.524 36.9573 42.524 37.9546V41.016C42.524 42.0133 41.681 42.824 40.644 42.824H37.463C36.425 42.824 35.584 42.0133 35.584 41.016V37.9546C35.584 36.956 36.427 36.1466 37.463 36.1466Z" fill="white"/>
<path d="M51.5 16H27.5C21.1487 16 16 21.1487 16 27.5V51.5C16 57.8513 21.1487 63 27.5 63H51.5C57.8513 63 63 57.8513 63 51.5V27.5C63 21.1487 57.8513 16 51.5 16Z" stroke="#33394B"/>
<path d="M85.85 45.6919C88.99 45.6919 91.07 43.8359 91.07 39.9799H86.27V41.2439H89.47C89.47 43.0039 87.84 44.3479 85.85 44.3479C83.53 44.3479 81.72 42.3799 81.72 40.0119C81.72 37.6439 83.53 35.6279 85.85 35.6279C86.89 35.6279 87.85 36.0439 88.56 36.6679L89.56 35.7239C88.6 34.8439 87.31 34.2839 85.85 34.2839C82.72 34.2839 80.27 36.8759 80.27 40.0119C80.27 43.1319 82.72 45.6919 85.85 45.6919ZM96.7 37.8359C95.88 37.8359 94.67 38.2519 94.22 39.1639V38.0279H92.83V45.4999H94.22V41.4519C94.22 39.8359 95.47 39.2119 96.51 39.2119C97.55 39.2119 98.31 40.0119 98.31 41.2599V45.4999H99.71V41.1799C99.72 39.0839 98.55 37.8359 96.7 37.8359ZM105.42 45.6919C107.55 45.6919 109.34 44.1239 109.34 41.7559C109.34 39.3879 107.55 37.8359 105.42 37.8359C103.29 37.8359 101.52 39.3879 101.52 41.7559C101.52 44.1239 103.29 45.6919 105.42 45.6919ZM105.42 44.3799C104.06 44.3799 102.92 43.3079 102.92 41.7559C102.92 40.2199 104.06 39.1479 105.42 39.1479C106.8 39.1479 107.95 40.2199 107.95 41.7559C107.95 43.3079 106.8 44.3799 105.42 44.3799ZM113.47 45.6919C115.02 45.6919 116.37 44.8119 116.37 43.4199C116.37 42.5719 115.97 41.6439 114.41 41.2599L113.31 40.9879C112.83 40.8759 112.35 40.6039 112.35 40.0919C112.35 39.5159 112.83 39.0519 113.55 39.0519C114.14 39.0519 114.73 39.4359 114.75 40.0119H116.09C116.09 38.5079 114.78 37.8359 113.52 37.8359C112.01 37.8359 110.96 38.8119 110.96 40.0439C110.96 41.2439 111.68 41.8519 112.93 42.1879L113.95 42.4279C114.54 42.5559 114.97 42.8439 114.97 43.4039C114.97 44.0119 114.41 44.4759 113.47 44.4759C112.56 44.4759 112 43.9479 111.98 43.3079H110.69C110.75 44.8439 112.13 45.6919 113.47 45.6919ZM118.92 36.2039C119.46 36.2039 119.91 35.8039 119.91 35.2759C119.91 34.7479 119.46 34.3479 118.92 34.3479C118.39 34.3479 117.94 34.7479 117.94 35.2759C117.94 35.8039 118.39 36.2039 118.92 36.2039ZM118.23 45.4999H119.62V38.0279H118.23V45.4999ZM124.24 45.6919C125.79 45.6919 127.13 44.8119 127.13 43.4199C127.13 42.5719 126.73 41.6439 125.18 41.2599L124.08 40.9879C123.6 40.8759 123.12 40.6039 123.12 40.0919C123.12 39.5159 123.6 39.0519 124.32 39.0519C124.91 39.0519 125.5 39.4359 125.52 40.0119H126.86C126.86 38.5079 125.55 37.8359 124.28 37.8359C122.78 37.8359 121.72 38.8119 121.72 40.0439C121.72 41.2439 122.44 41.8519 123.69 42.1879L124.72 42.4279C125.31 42.5559 125.74 42.8439 125.74 43.4039C125.74 44.0119 125.18 44.4759 124.24 44.4759C123.32 44.4759 122.76 43.9479 122.75 43.3079H121.45C121.52 44.8439 122.89 45.6919 124.24 45.6919ZM136.53 45.6919C138.82 45.6919 140.21 44.1079 140.21 42.3959C140.21 40.8279 139.09 39.8679 137.22 39.3719L135.78 38.9879C134.31 38.6039 134.18 37.8359 134.18 37.4519C134.18 36.3639 135.2 35.6279 136.31 35.6279C137.49 35.6279 138.4 36.3799 138.4 37.4839H139.84C139.84 35.5159 138.29 34.2839 136.36 34.2839C134.44 34.2839 132.72 35.5639 132.72 37.4679C132.72 38.3639 133.09 39.7399 135.43 40.2999L136.85 40.6519C137.78 40.8919 138.76 41.3719 138.76 42.4439C138.76 43.4199 137.96 44.3479 136.53 44.3479C135.06 44.3479 134.13 43.3559 134.08 42.3799H132.64C132.66 44.0919 134.21 45.6919 136.53 45.6919ZM148.04 38.0279V39.1959C147.55 38.3159 146.49 37.8359 145.37 37.8359C143.26 37.8359 141.64 39.5479 141.64 41.7559C141.64 44.0439 143.35 45.6919 145.31 45.6919C146.51 45.6919 147.55 45.0679 148.04 44.1719V45.4999H149.43V38.0279H148.04ZM145.51 44.3799C144.14 44.3799 143.05 43.1799 143.05 41.7559C143.05 40.3479 144.14 39.1479 145.5 39.1479C146.75 39.1479 148.04 40.2199 148.04 41.7559C148.04 43.2759 146.84 44.3799 145.51 44.3799ZM155.54 35.2759H156.1V33.9639H155.3C153.3 33.9639 152.48 35.3079 152.48 37.2599V38.0279H151.04V39.2279H152.48V45.4999H153.87V39.2279H155.62V38.0279H153.87V37.0679C153.86 36.0919 154.21 35.2759 155.54 35.2759ZM164.04 41.7399C164.04 39.3719 162.45 37.8359 160.33 37.8359C158.2 37.8359 156.49 39.3719 156.49 41.7399C156.49 44.1079 158.2 45.6919 160.33 45.6919C161.77 45.6919 163.11 44.9879 163.75 43.6919L162.55 43.2119C162.12 43.9639 161.29 44.3799 160.37 44.3799C159.09 44.3799 158.13 43.6919 157.93 42.3639H164.01C164.02 42.1559 164.04 41.9479 164.04 41.7399ZM157.94 41.1639C158.17 39.8199 159.06 39.1479 160.33 39.1479C161.56 39.1479 162.47 39.8839 162.65 41.1639H157.94Z" fill="#EFF1FC"/>
<path d="M195.5 0H23.5C10.5213 0 0 10.5213 0 23.5V55.5C0 68.4787 10.5213 79 23.5 79H195.5C208.479 79 219 68.4787 219 55.5V23.5C219 10.5213 208.479 0 195.5 0Z" stroke="#33394B"/>
</g>
<defs>
<clipPath id="clip0_23_38">
<rect width="219" height="79" fill="white"/>
</clipPath>
</defs>
</svg>
