<svg width="219" height="80" viewBox="0 0 219 80" fill="none" xmlns="http://www.w3.org/2000/svg">
<g clip-path="url(#clip0_23_35)">
<path d="M195.5 0H23.5C10.5213 0 0 10.5213 0 23.5V55.5C0 68.4787 10.5213 79 23.5 79H195.5C208.479 79 219 68.4787 219 55.5V23.5C219 10.5213 208.479 0 195.5 0Z" fill="#242835"/>
<path fill-rule="evenodd" clip-rule="evenodd" d="M39.47 24.8335C40.72 26.3638 42.1 27.7849 43.59 29.0804C42.6 32.3012 42.0601 35.7231 42.0601 39.2698C42.0601 42.8165 42.6 46.2384 43.59 49.4592C42.1 50.7548 40.72 52.176 39.47 53.7063C38.22 52.176 36.85 50.7547 35.36 49.4592C36.35 46.2384 36.88 42.8166 36.88 39.2699C36.88 35.7232 36.35 32.3013 35.36 29.0805C36.85 27.785 38.22 26.3638 39.47 24.8335ZM32.51 47.2326C30.93 46.1269 29.26 45.1497 27.5 44.3163C27.99 42.72 28.25 41.0255 28.25 39.2699C28.25 37.5143 27.99 35.8198 27.5 34.2235C29.26 33.3901 30.93 32.4129 32.51 31.3072C33.11 33.8634 33.4301 36.5293 33.4301 39.2698C33.4301 42.0103 33.11 44.6763 32.51 47.2326ZM45.52 39.2699C45.52 42.0103 45.8399 44.6762 46.4399 47.2324C48.0199 46.1267 49.69 45.1496 51.45 44.3162C50.96 42.7199 50.7 41.0255 50.7 39.2698C50.7 37.5142 50.96 35.8198 51.45 34.2235C49.69 33.3901 48.0199 32.413 46.4399 31.3074C45.8399 33.8635 45.52 36.5295 45.52 39.2699Z" fill="#6851FF"/>
<path d="M51.5 16H27.5C21.1487 16 16 21.1487 16 27.5V51.5C16 57.8513 21.1487 63 27.5 63H51.5C57.8513 63 63 57.8513 63 51.5V27.5C63 21.1487 57.8513 16 51.5 16Z" stroke="#33394B"/>
<path d="M93.6 45.5001L92.24 34.4761H90.92L87 42.6521L83.0699 34.4761H81.76L80.41 45.5001H81.84L82.84 37.1001L86.38 44.3001H87.64L91.15 37.1001L92.17 45.5001H93.6ZM101.49 38.0281V39.1961C101 38.3161 99.9399 37.8361 98.8199 37.8361C96.7099 37.8361 95.09 39.5481 95.09 41.7561C95.09 44.0441 96.81 45.6921 98.76 45.6921C99.96 45.6921 101 45.0681 101.49 44.1721V45.5001H102.89V38.0281H101.49ZM98.97 44.3801C97.59 44.3801 96.5 43.1801 96.5 41.7561C96.5 40.3481 97.59 39.1481 98.95 39.1481C100.2 39.1481 101.49 40.2201 101.49 41.7561C101.49 43.2761 100.29 44.3801 98.97 44.3801ZM111.23 38.0281V39.1961C110.73 38.3321 109.68 37.8361 108.56 37.8361C106.51 37.8361 104.83 39.3881 104.83 41.7561C104.83 44.1081 106.53 45.6921 108.57 45.6921C109.65 45.6921 110.73 45.1801 111.23 44.3321V44.5561C111.23 47.0841 110.21 48.0121 108.56 48.0121C107.73 48.0121 106.85 47.5481 106.38 46.7001L105.2 47.3241C105.93 48.6361 107.2 49.3241 108.56 49.3241C111.02 49.3241 112.62 47.9961 112.62 44.4601V38.0281H111.23ZM108.69 44.3801C107.33 44.3801 106.24 43.2281 106.24 41.7401C106.24 40.2361 107.33 39.1481 108.69 39.1481C109.92 39.1481 111.23 40.1241 111.23 41.7401C111.23 43.3401 110.03 44.3801 108.69 44.3801ZM115.75 36.2041C116.29 36.2041 116.74 35.8041 116.74 35.2761C116.74 34.7481 116.29 34.3481 115.75 34.3481C115.22 34.3481 114.77 34.7481 114.77 35.2761C114.77 35.8041 115.22 36.2041 115.75 36.2041ZM115.06 45.5001H116.45V38.0281H115.06V45.5001ZM122.36 45.6921C123.53 45.6921 124.55 45.2441 125.21 44.5081L124.33 43.5961C123.86 44.0761 123.19 44.3801 122.41 44.3801C120.94 44.3801 119.75 43.2921 119.75 41.7561C119.75 40.2201 120.94 39.1481 122.41 39.1481C123.19 39.1481 123.86 39.4521 124.33 39.9321L125.21 39.0201C124.55 38.3001 123.53 37.8361 122.36 37.8361C120.22 37.8361 118.34 39.3881 118.34 41.7561C118.34 44.1241 120.22 45.6921 122.36 45.6921Z" fill="#EFF1FC"/>
<path d="M195.5 0H23.5C10.5213 0 0 10.5213 0 23.5V55.5C0 68.4787 10.5213 79 23.5 79H195.5C208.479 79 219 68.4787 219 55.5V23.5C219 10.5213 208.479 0 195.5 0Z" stroke="#33394B"/>
</g>
<defs>
<clipPath id="clip0_23_35">
<rect width="219" height="80" fill="white"/>
</clipPath>
</defs>
</svg>
