<svg width="219" height="79" viewBox="0 0 219 79" fill="none" xmlns="http://www.w3.org/2000/svg">
<g clip-path="url(#clip0_23_41)">
<path d="M195.5 0H23.5C10.5213 0 0 10.5213 0 23.5V55.5C0 68.4787 10.5213 79 23.5 79H195.5C208.479 79 219 68.4787 219 55.5V23.5C219 10.5213 208.479 0 195.5 0Z" fill="#242835"/>
<mask id="mask0_23_41" style="mask-type:luminance" maskUnits="userSpaceOnUse" x="23" y="23" width="33" height="33">
<path d="M55.5 23.5H23.5V55.5H55.5V23.5Z" fill="white"/>
</mask>
<g mask="url(#mask0_23_41)">
<path d="M39.5 55.5C48.337 55.5 55.5 48.3366 55.5 39.5C55.5 30.6634 48.337 23.5 39.5 23.5C30.663 23.5 23.5 30.6634 23.5 39.5C23.5 48.3366 30.663 55.5 39.5 55.5Z" fill="#1652F0"/>
<path fill-rule="evenodd" clip-rule="evenodd" d="M27.864 39.5002C27.864 45.9268 33.074 51.1366 39.501 51.1366C45.927 51.1366 51.137 45.9268 51.137 39.5002C51.137 33.0736 45.927 27.8638 39.501 27.8638C33.074 27.8638 27.864 33.0736 27.864 39.5002ZM37.351 35.7514C36.467 35.7514 35.751 36.4677 35.751 37.3514V41.6503C35.751 42.534 36.467 43.2503 37.351 43.2503H41.65C42.534 43.2503 43.25 42.534 43.25 41.6503V37.3514C43.25 36.4677 42.534 35.7514 41.65 35.7514H37.351Z" fill="white"/>
</g>
<path d="M51.5 16H27.5C21.1487 16 16 21.1487 16 27.5V51.5C16 57.8513 21.1487 63 27.5 63H51.5C57.8513 63 63 57.8513 63 51.5V27.5C63 21.1487 57.8513 16 51.5 16Z" stroke="#33394B"/>
<path d="M85.8681 45.6919C87.5641 45.6919 89.0361 44.9719 90.0121 43.8199L88.9561 42.9239C88.2201 43.7879 87.1001 44.3479 85.8681 44.3479C83.5481 44.3479 81.7241 42.3639 81.7241 40.0119C81.7241 37.6439 83.5481 35.6279 85.8681 35.6279C87.1001 35.6279 88.2201 36.1879 88.9561 37.0519L90.0121 36.1559C89.0361 35.0039 87.5641 34.2839 85.8681 34.2839C82.7481 34.2839 80.2681 36.8919 80.2681 40.0119C80.2681 43.1319 82.7481 45.6919 85.8681 45.6919ZM95.0611 45.6919C97.1891 45.6919 98.981 44.1239 98.981 41.7559C98.981 39.3879 97.1891 37.8359 95.0611 37.8359C92.9331 37.8359 91.1571 39.3879 91.1571 41.7559C91.1571 44.1239 92.9331 45.6919 95.0611 45.6919ZM95.0611 44.3799C93.7011 44.3799 92.5651 43.3079 92.5651 41.7559C92.5651 40.2199 93.7011 39.1479 95.0611 39.1479C96.4371 39.1479 97.5891 40.2199 97.5891 41.7559C97.5891 43.3079 96.4371 44.3799 95.0611 44.3799ZM101.607 36.2039C102.151 36.2039 102.599 35.8039 102.599 35.2759C102.599 34.7479 102.151 34.3479 101.607 34.3479C101.079 34.3479 100.631 34.7479 100.631 35.2759C100.631 35.8039 101.079 36.2039 101.607 36.2039ZM100.919 45.4999H102.311V38.0279H100.919V45.4999ZM108.604 37.8359C107.788 37.8359 106.572 38.2519 106.124 39.1639V38.0279H104.732V45.4999H106.124V41.4519C106.124 39.8359 107.372 39.2119 108.412 39.2119C109.452 39.2119 110.22 40.0119 110.22 41.2599V45.4999H111.612V41.1799C111.628 39.0839 110.46 37.8359 108.604 37.8359ZM117.999 37.8359C116.879 37.8359 115.823 38.3159 115.327 39.1959V33.9639H113.935V45.4999H115.327V44.3319C115.823 45.1799 116.911 45.6919 117.983 45.6919C120.031 45.6919 121.727 44.1079 121.727 41.7559C121.727 39.3879 120.047 37.8359 117.999 37.8359ZM117.855 44.3799C116.527 44.3799 115.327 43.3399 115.327 41.7399C115.327 40.1239 116.639 39.1479 117.855 39.1479C119.231 39.1479 120.319 40.2359 120.319 41.7399C120.319 43.2279 119.231 44.3799 117.855 44.3799ZM129.557 38.0279V39.1959C129.061 38.3159 128.005 37.8359 126.885 37.8359C124.773 37.8359 123.157 39.5479 123.157 41.7559C123.157 44.0439 124.869 45.6919 126.821 45.6919C128.021 45.6919 129.061 45.0679 129.557 44.1719V45.4999H130.949V38.0279H129.557ZM127.029 44.3799C125.653 44.3799 124.565 43.1799 124.565 41.7559C124.565 40.3479 125.653 39.1479 127.013 39.1479C128.261 39.1479 129.557 40.2199 129.557 41.7559C129.557 43.2759 128.357 44.3799 127.029 44.3799ZM135.58 45.6919C137.132 45.6919 138.476 44.8119 138.476 43.4199C138.476 42.5719 138.076 41.6439 136.524 41.2599L135.42 40.9879C134.94 40.8759 134.46 40.6039 134.46 40.0919C134.46 39.5159 134.94 39.0519 135.66 39.0519C136.252 39.0519 136.844 39.4359 136.86 40.0119H138.204C138.204 38.5079 136.892 37.8359 135.628 37.8359C134.124 37.8359 133.068 38.8119 133.068 40.0439C133.068 41.2439 133.788 41.8519 135.036 42.1879L136.06 42.4279C136.652 42.5559 137.084 42.8439 137.084 43.4039C137.084 44.0119 136.524 44.4759 135.58 44.4759C134.668 44.4759 134.108 43.9479 134.092 43.3079H132.796C132.86 44.8439 134.236 45.6919 135.58 45.6919ZM147.397 41.7399C147.397 39.3719 145.813 37.8359 143.685 37.8359C141.557 37.8359 139.845 39.3719 139.845 41.7399C139.845 44.1079 141.557 45.6919 143.685 45.6919C145.125 45.6919 146.469 44.9879 147.109 43.6919L145.909 43.2119C145.477 43.9639 144.645 44.3799 143.733 44.3799C142.453 44.3799 141.493 43.6919 141.285 42.3639H147.365C147.381 42.1559 147.397 41.9479 147.397 41.7399ZM141.301 41.1639C141.525 39.8199 142.421 39.1479 143.685 39.1479C144.917 39.1479 145.829 39.8839 146.005 41.1639H141.301Z" fill="#EFF1FC"/>
<path d="M195.5 0H23.5C10.5213 0 0 10.5213 0 23.5V55.5C0 68.4787 10.5213 79 23.5 79H195.5C208.479 79 219 68.4787 219 55.5V23.5C219 10.5213 208.479 0 195.5 0Z" stroke="#33394B"/>
</g>
<defs>
<clipPath id="clip0_23_41">
<rect width="219" height="79" fill="white"/>
</clipPath>
</defs>
</svg>
